<svg width="124" height="24" viewBox="0 0 124 24" fill="none" xmlns="http://www.w3.org/2000/svg">
<g clip-path="url(#clip0_21_19789)">
<path d="M10.9222 15.114L9.21275 19.7464L6.98579 13.7433L5.93796 16.5807L8.29488 22.9331C8.36535 23.1224 8.49163 23.2851 8.6559 23.4002C8.81897 23.5149 9.01521 23.5766 9.21656 23.5765C9.41791 23.5763 9.61405 23.5143 9.77693 23.3993C9.94166 23.2838 10.067 23.1198 10.137 22.93L12.4363 16.7024L11.383 13.8678L10.9222 15.1136V15.114ZM33.2303 0.333993C33.1097 0.288752 32.9809 0.267901 32.8517 0.272715C32.7225 0.27753 32.5957 0.307909 32.479 0.361993C32.2393 0.474085 32.055 0.673836 31.9665 0.917549L25.0161 19.7522L18.0039 0.850438C17.929 0.645638 17.7865 0.470637 17.5985 0.35266C17.4133 0.236797 17.1924 0.186772 16.9735 0.211076C16.7546 0.235379 16.551 0.332513 16.3974 0.485993C16.2405 0.639327 16.1385 0.841549 16.1078 1.06022L13.8451 7.19977L14.8985 10.034L17.1016 4.06466L24.0992 22.9211C24.1696 23.1104 24.2959 23.2736 24.4602 23.3887C24.6249 23.5033 24.8198 23.5651 25.0202 23.5655C25.2206 23.5651 25.4165 23.5029 25.5812 23.3873C25.7459 23.2718 25.8713 23.1078 25.9413 22.918L33.8087 1.60688C33.8983 1.36014 33.8878 1.0895 33.7794 0.849993C33.6739 0.614199 33.4764 0.428648 33.2303 0.333993ZM4.10542 5.97844L2.20332 0.850438C2.18217 0.794676 2.15598 0.740838 2.12508 0.689549L2.09488 0.643771C2.07199 0.609831 2.04693 0.577323 2.01984 0.546438L1.98049 0.504216C1.94941 0.473632 1.91623 0.445122 1.8812 0.418882L1.84825 0.391771C1.80168 0.359143 1.75222 0.330587 1.70046 0.306438L1.65836 0.291327C1.61925 0.274683 1.57905 0.260578 1.53802 0.249104H1.48083L1.36369 0.233549H1.12255C1.06831 0.243303 1.01504 0.257578 0.963322 0.276216H0.942274C0.820403 0.32227 0.709303 0.391643 0.615573 0.480216C0.520857 0.569104 0.444901 0.676216 0.391366 0.794882C0.282899 1.0359 0.274214 1.30825 0.367115 1.55533L3.47352 9.92511L4.52089 7.08777L4.10542 5.97888V5.97844Z" fill="#6228B1"/>
<path d="M10.0704 0.850543C10.0012 0.663083 9.8754 0.500276 9.70938 0.383432C9.54643 0.268848 9.35049 0.206963 9.14932 0.206543C8.94891 0.206543 8.75307 0.268765 8.58835 0.384321C8.42363 0.499876 8.29825 0.663876 8.22825 0.853654L0.361338 22.1772C0.25356 22.428 0.252573 22.7101 0.358593 22.9617C0.411213 23.0857 0.488083 23.1977 0.58463 23.2905C0.680718 23.3839 0.795109 23.4563 0.92094 23.5034C1.0458 23.5504 1.17947 23.5713 1.31321 23.5646C1.44694 23.558 1.57771 23.5239 1.69697 23.4648C1.81685 23.4057 1.92392 23.3225 2.01086 23.2199C2.0978 23.1177 2.16323 22.9985 2.20304 22.8697L9.15298 4.0341L16.162 22.9243C16.2031 23.0519 16.2695 23.1692 16.3569 23.2701C16.4447 23.3705 16.5513 23.4523 16.6708 23.5101C16.8506 23.5977 17.0543 23.6279 17.2528 23.5964C17.4513 23.5649 17.6345 23.4732 17.7762 23.3345C17.8723 23.2421 17.9487 23.131 18.0014 23.0079C18.1075 22.7586 18.1085 22.4788 18.0041 22.2288L10.0699 0.850543H10.0704Z" fill="#07CFB5"/>
<path d="M44.2245 10.6028H37.3445L36.0112 14.1268H34.9121L40.2459 0.273438H41.3441L46.6505 14.1268H45.5523L44.2245 10.6023V10.6028ZM43.8515 9.6121L40.7936 1.55877L37.7357 9.6121H43.8515Z" fill="white"/>
<path d="M46.9518 14.3246H45.4464L44.1135 10.8033H37.4925L36.1587 14.3242H34.6538L40.1377 0.0761719H41.504L46.9518 14.3242V14.3246ZM45.7026 13.9291H46.3798L41.2185 0.47395H40.3875L35.2139 13.9291H35.8911L37.2244 10.4082H44.3748L45.7022 13.9291H45.7026ZM44.1469 9.81262H37.4527L40.7966 1.00284L44.1464 9.81262H44.1469ZM38.0219 9.41795H43.5685L40.7966 2.12684L38.0219 9.41795ZM48.6759 9.17795C48.6625 8.494 48.787 7.81412 49.0424 7.17662C49.2947 6.54516 49.6743 5.96901 50.1588 5.48195C50.6367 5.00203 51.2111 4.62276 51.8463 4.36773C52.4752 4.11575 53.1517 3.99507 53.8317 4.0135C55.7517 4.0135 57.4012 5.00373 58.1054 6.54684L57.3019 7.02106C56.7331 5.77528 55.3998 4.96417 53.8317 4.96417C52.724 4.96417 51.6619 5.40862 50.879 6.19884C50.0957 6.9895 49.6555 8.06106 49.6555 9.17928C49.6555 10.2975 50.0957 11.3695 50.879 12.1602C51.6619 12.9504 52.724 13.3944 53.8317 13.3944C54.5532 13.4115 55.2647 13.2285 55.883 12.8668C56.5112 12.4987 57.023 11.9698 57.3623 11.3379L58.1868 11.8331C57.7663 12.6083 57.1344 13.2562 56.3602 13.7059C55.5981 14.1478 54.7221 14.3696 53.8349 14.3455C53.1543 14.3643 52.4772 14.2438 51.8477 13.9917C51.2119 13.7368 50.637 13.3574 50.1588 12.8771C49.6738 12.3897 49.2938 11.8131 49.0415 11.1811C48.7861 10.5429 48.6619 9.86243 48.6759 9.17795Z" fill="white"/>
<path d="M53.8318 14.543C52.4225 14.543 51.0713 13.9777 50.0747 12.9719C49.0781 11.9661 48.5181 10.6021 48.5181 9.17947C48.5181 7.75725 49.0781 6.39281 50.0747 5.38703C51.0713 4.38081 52.4225 3.81592 53.8318 3.81592C55.8304 3.81592 57.5367 4.83058 58.2834 6.46481L58.3584 6.62925L57.215 7.29147L57.1244 7.0937C56.5767 5.8937 55.3188 5.1497 53.8318 5.1497C52.7762 5.1497 51.764 5.57281 51.0173 6.32614C50.271 7.07992 49.8514 8.1017 49.8514 9.16747C49.8514 10.2328 50.271 11.2546 51.0173 12.0084C51.764 12.7617 52.7762 13.1848 53.8318 13.1848C54.5163 13.2028 55.1918 13.0308 55.7792 12.6888C56.3757 12.3407 56.8621 11.8397 57.1848 11.2408L57.2809 11.0586L58.4399 11.7541L58.3557 11.9213C57.9188 12.7281 57.2623 13.403 56.4577 13.8724C55.6656 14.3332 54.7548 14.5658 53.8318 14.543ZM53.8318 4.21414C52.5268 4.21414 51.2753 4.73725 50.3524 5.66881C49.4295 6.60036 48.9111 7.86347 48.9111 9.18081C48.9111 10.4981 49.4295 11.7617 50.3524 12.6933C51.2753 13.6248 52.5268 14.1479 53.8318 14.1479C54.6513 14.169 55.4612 13.9728 56.1745 13.5804C56.8985 13.1814 57.5013 12.6039 57.9219 11.9061L57.4346 11.6021C57.0635 12.2189 56.5314 12.7297 55.8922 13.083C55.2624 13.4303 54.547 13.6042 53.8231 13.5861C52.6833 13.5559 51.6007 13.0777 50.805 12.2533C50.0097 11.4293 49.5645 10.3244 49.5645 9.17325C49.5645 8.02258 50.0097 6.9177 50.805 6.09325C51.6007 5.26881 52.6833 4.79103 53.8231 4.76081C55.382 4.76081 56.7213 5.51414 57.3742 6.73858L57.8409 6.46214C57.1335 5.0737 55.6108 4.21103 53.8318 4.21103V4.2137V4.21414ZM65.6749 4.09192V5.04303C63.9897 5.04303 62.4006 6.09103 62.4006 8.62481V14.1266H61.4191V4.23103H62.4006V6.16925C63.0686 4.60792 64.3416 4.09147 65.6749 4.09147V4.09192Z" fill="white"/>
<path d="M62.6022 14.3244H61.2295V4.03458H62.6022V5.39902C63.273 4.41146 64.3235 3.89502 65.6811 3.89502H65.8765V5.2408H65.6811C64.1941 5.2408 62.6022 6.13102 62.6022 8.62524V14.3244ZM61.6207 13.9292H62.2229V8.62524C62.2229 5.94835 63.9442 4.92746 65.4972 4.8488V4.29324C64.1039 4.34746 63.1288 5.00391 62.599 6.24613L62.2229 7.12746V4.42658H61.6207V13.9288V13.9292ZM67.4775 9.17769C67.4704 8.15383 67.7663 7.14955 68.33 6.28435C68.8826 5.43373 69.6842 4.76283 70.632 4.35769C71.5672 3.95993 72.6059 3.85177 73.6066 4.04791C74.6143 4.24839 75.5358 4.74085 76.2495 5.46035C76.9776 6.19374 77.4707 7.11677 77.6689 8.11724C77.8707 9.12524 77.7718 10.1706 77.3847 11.1221C77.0041 12.065 76.3462 12.8781 75.4932 13.4604C74.6551 14.0314 73.657 14.3393 72.6334 14.3426C71.9554 14.3524 71.2827 14.2257 70.6576 13.9706C70.0264 13.7126 69.4555 13.3331 68.9793 12.855C68.4964 12.3697 68.1165 11.7969 67.861 11.1692C67.6029 10.5356 67.4727 9.85957 67.4775 9.17813V9.17769ZM76.7716 9.17769C76.7674 8.3543 76.52 7.54938 76.0587 6.85858C75.6065 6.1793 74.9558 5.64663 74.19 5.3288C73.4341 5.01668 72.5977 4.93801 71.7942 5.10346C70.985 5.27253 70.2473 5.67535 69.678 6.25902C69.0973 6.85392 68.7066 7.59957 68.5533 8.40569C68.3967 9.21746 68.4819 10.0558 68.799 10.8221C69.1098 11.5785 69.6429 12.2294 70.3318 12.6937C71.0088 13.1492 71.813 13.3927 72.6366 13.3915C73.1852 13.395 73.7286 13.2881 74.2326 13.0777C74.7416 12.8645 75.2009 12.5533 75.5828 12.163C75.9701 11.7673 76.2735 11.3014 76.4755 10.7919C76.6804 10.2775 76.7809 9.72956 76.7716 9.17813V9.17769Z" fill="white"/>
<path d="M72.6362 14.5432C71.5814 14.5373 70.5537 14.2183 69.6908 13.629C68.8126 13.0281 68.1355 12.1898 67.7435 11.2183C67.3443 10.2343 67.2426 9.16011 67.4502 8.12188C67.6533 7.09072 68.16 6.13893 68.9089 5.38188C69.6429 4.63939 70.591 4.12996 71.6286 3.92055C72.6593 3.7155 73.7299 3.82334 74.6952 4.22944C75.6734 4.64313 76.5023 5.33081 77.0759 6.20455C77.6607 7.09328 77.9708 8.12626 77.9696 9.18099C77.9748 9.8869 77.8401 10.5872 77.5729 11.2437C77.3091 11.8941 76.9164 12.4878 76.417 12.9912C75.9249 13.4875 75.3345 13.882 74.6815 14.1512C74.0322 14.4179 73.3372 14.5512 72.6362 14.5432ZM72.6362 4.21433C71.6592 4.21978 70.7073 4.51537 69.9082 5.06144C69.0949 5.61829 68.4679 6.39486 68.1049 7.29477C67.7356 8.20642 67.6415 9.20145 67.8336 10.1632C68.022 11.1183 68.4915 11.9998 69.1852 12.701C69.8654 13.3887 70.7438 13.8605 71.7051 14.0543C72.6597 14.2442 73.6514 14.1443 74.5456 13.7681C75.4516 13.3847 76.2193 12.7477 76.7506 11.9383C77.2923 11.115 77.5795 10.1581 77.5784 9.18099C77.5835 8.52673 77.4591 7.87761 77.2118 7.26899C76.9671 6.66637 76.6032 6.11615 76.1407 5.64944C75.6845 5.18929 75.1373 4.82345 74.5319 4.57388C73.9325 4.32734 73.2871 4.20373 72.6362 4.21077V4.21388V4.21433ZM72.6362 13.5952C71.7658 13.6019 70.9142 13.3491 70.1965 12.8708C69.4658 12.383 68.8995 11.6967 68.5684 10.8979C68.231 10.0888 68.1391 9.20278 68.3035 8.34455C68.4644 7.49178 68.8771 6.70286 69.4913 6.07388C70.0933 5.45688 70.8738 5.03178 71.7298 4.85477C72.5795 4.68125 73.4636 4.76662 74.2615 5.09922C75.0701 5.43797 75.7558 6.00403 76.2304 6.72455C76.7145 7.45744 76.9714 8.31018 76.9702 9.18099C76.9777 9.75816 76.871 10.3314 76.6559 10.8694C76.4431 11.4023 76.1249 11.8896 75.7193 12.3037C75.3194 12.7119 74.8388 13.0375 74.3063 13.261C73.7789 13.4817 73.2104 13.5944 72.6362 13.5921V13.5952ZM72.6362 5.16499C71.844 5.15833 71.0688 5.38792 70.4152 5.82277C69.7501 6.26607 69.2345 6.89002 68.9327 7.61655C68.6252 8.35271 68.541 9.15898 68.6902 9.9401C68.8362 10.7161 69.2114 11.4341 69.77 12.0068C70.3176 12.5685 71.0277 12.9556 71.8066 13.117C72.5799 13.2751 73.3846 13.1977 74.1109 12.8952C74.8467 12.587 75.4707 12.072 75.9027 11.4165C76.3434 10.7496 76.5773 9.97351 76.5763 9.18099C76.5829 8.65613 76.4859 8.1349 76.2908 7.64544C76.0976 7.16051 75.8084 6.71704 75.4397 6.3401C75.0762 5.96839 74.6392 5.6718 74.1548 5.4681C73.6755 5.26671 73.1585 5.16352 72.6362 5.16499ZM80.3411 0.273438H81.4397L84.9881 12.7294L88.8106 0.273438H90.0447L93.8878 12.7294L97.4184 0.273438H98.517L94.5348 14.1268H93.2801L89.4366 1.64055L85.5752 14.1268H84.3201L80.3411 0.273438Z" fill="white"/>
<path d="M94.6823 14.3246H93.1353L89.4363 2.30595L85.7195 14.3242H84.1725L80.0791 0.0761719H81.584L84.9943 12.0304L88.6658 0.0761719H90.189L93.8788 12.0304L97.2675 0.0761719H98.7724L94.6823 14.3242V14.3246ZM93.4244 13.9291H94.3871L98.2549 0.47395H97.5654L93.9026 13.4131L89.909 0.470839H88.9636L84.9879 13.4131L81.2981 0.470839H80.5998L84.4672 13.9264H85.4303L89.4363 0.972172L93.4244 13.9291ZM109.827 9.21706C109.827 9.37529 109.806 9.52106 109.806 9.69129H100.927C101.162 11.9268 102.848 13.3913 105.084 13.3913C106.691 13.3913 107.907 12.638 108.476 11.59L109.339 12.1033C108.536 13.4491 107.007 14.3393 105.066 14.3393C102.056 14.3393 99.91 12.1611 99.91 9.17484C99.91 6.26417 101.987 4.01039 104.988 4.01039C107.988 4.01039 109.827 6.50728 109.827 9.21706ZM100.927 8.72195H108.81C108.593 6.30684 106.907 4.96106 104.988 4.96106C103.958 4.93084 102.958 5.30773 102.2 6.01039C101.441 6.71351 100.985 7.68728 100.927 8.72506V8.72195Z" fill="white"/>
<path d="M105.063 14.5432C101.963 14.5432 99.7114 12.289 99.7114 9.18099C99.7114 6.07344 101.93 3.81922 104.984 3.81922C108.256 3.81922 110.023 6.60188 110.023 9.22055V9.89211H101.15C101.451 11.8788 103.01 13.1974 105.084 13.1974C106.522 13.1974 107.726 12.5623 108.304 11.4992L108.401 11.3197L109.604 12.0397L109.502 12.2099C108.62 13.6925 107.001 14.5432 105.063 14.5432ZM104.984 4.21433C102.155 4.21433 100.103 6.3041 100.103 9.18099C100.103 12.0583 102.188 14.1481 105.063 14.1481C106.784 14.1481 108.229 13.4312 109.063 12.1765L108.542 11.873C107.865 12.9574 106.585 13.6014 105.081 13.6014C102.721 13.6014 100.972 12.0428 100.729 9.72499L100.705 9.50633H109.613V9.22988C109.631 6.78988 108.003 4.21122 104.984 4.21122V4.21388V4.21433ZM109.023 8.92277H100.711L100.729 8.70722C100.792 7.62099 101.271 6.60188 102.065 5.86544C102.858 5.12855 103.904 4.73166 104.981 4.75788C107.176 4.75788 108.789 6.34055 109 8.70722L109.023 8.92277ZM101.147 8.5281H108.59C108.322 6.50766 106.898 5.16499 104.978 5.16499C104.03 5.13264 103.107 5.4617 102.405 6.08188C101.693 6.70544 101.242 7.57877 101.144 8.52499L101.147 8.5281ZM123.473 9.17788C123.482 9.85395 123.357 10.5254 123.105 11.1557C122.856 11.7799 122.483 12.3507 122.008 12.8357C121.539 13.3135 120.976 13.6944 120.352 13.9557C119.734 14.214 119.068 14.3456 118.396 14.3423C117.528 14.3601 116.673 14.1341 115.934 13.6917C115.184 13.241 114.577 12.5964 114.182 11.8299V14.1268H113.201V0.273438H114.182V6.52588C114.577 5.75918 115.184 5.11437 115.934 4.66366C116.673 4.22136 117.528 3.99559 118.396 4.01344C119.067 4.00944 119.732 4.14099 120.352 4.4001C120.976 4.66133 121.539 5.04228 122.008 5.5201C122.483 6.00504 122.856 6.57581 123.105 7.20011C123.357 7.8281 123.482 8.50055 123.473 9.17788ZM122.492 9.17788C122.49 8.35265 122.243 7.54539 121.783 6.8521C121.331 6.17041 120.68 5.63512 119.914 5.31477C119.157 5.00039 118.319 4.9197 117.513 5.08366C116.702 5.25086 115.962 5.65244 115.39 6.23566C114.807 6.83034 114.413 7.57664 114.258 8.3841C114.099 9.19704 114.182 10.0372 114.497 10.8059C114.807 11.5647 115.339 12.2184 116.028 12.6859C116.705 13.1442 117.51 13.3905 118.336 13.3917C118.885 13.3959 119.43 13.2897 119.936 13.0797C120.447 12.8671 120.908 12.5565 121.292 12.1663C121.681 11.7706 121.987 11.3045 122.192 10.7943C122.399 10.2794 122.502 9.73062 122.495 9.17788H122.492Z" fill="white"/>
<path d="M118.396 14.5428C117.61 14.5617 116.832 14.3875 116.135 14.0362C115.427 13.6797 114.821 13.1601 114.369 12.5228V14.3242H112.997V0.0761719H114.369V5.84817C114.82 5.21272 115.425 4.69437 116.131 4.33839C116.827 3.9879 117.603 3.81349 118.387 3.83128C119.796 3.83128 121.148 4.39617 122.144 5.40195C123.141 6.40773 123.7 7.77217 123.7 9.19484C123.7 10.6171 123.141 11.9815 122.144 12.9873C121.148 13.9931 119.796 14.558 118.387 14.558L118.396 14.5428ZM113.984 11.0402L114.354 11.7388C114.731 12.4755 115.313 13.095 116.033 13.5273C116.742 13.9518 117.563 14.1675 118.396 14.1482C119.701 14.1482 120.953 13.6246 121.876 12.6931C122.798 11.7615 123.316 10.4984 123.316 9.18106C123.316 7.86373 122.798 6.60017 121.876 5.66862C120.953 4.73706 119.701 4.21395 118.396 4.21395C117.563 4.19446 116.743 4.40999 116.033 4.83439C115.313 5.26663 114.731 5.88613 114.354 6.62284L113.984 7.32151V0.471283H113.382V13.9264H113.984V11.0402ZM118.335 13.5953C117.466 13.5983 116.616 13.3424 115.9 12.8619C115.172 12.3719 114.609 11.6843 114.28 10.8851C113.946 10.0756 113.857 9.19019 114.023 8.33306C114.186 7.48164 114.6 6.69452 115.215 6.06728C115.818 5.45208 116.598 5.02874 117.454 4.85306C118.303 4.68105 119.186 4.76749 119.983 5.10062C120.791 5.44003 121.475 6.00619 121.949 6.72639C122.433 7.45895 122.689 8.311 122.688 9.18106C122.695 9.7597 122.588 10.3343 122.372 10.8735C122.158 11.4075 121.838 11.8955 121.43 12.3099C121.028 12.7182 120.546 13.0432 120.011 13.2655C119.482 13.4855 118.911 13.5967 118.335 13.5922V13.5953ZM118.335 5.16462C117.544 5.16214 116.771 5.39528 116.12 5.83262C115.458 6.27847 114.945 6.9041 114.647 7.63128C114.343 8.3677 114.262 9.17332 114.413 9.95306C114.562 10.7277 114.938 11.4437 115.498 12.0144C116.046 12.5739 116.756 12.9588 117.535 13.1184C118.307 13.2748 119.111 13.1961 119.836 12.8931C120.571 12.5844 121.193 12.0692 121.624 11.4139C122.064 10.7477 122.298 9.97257 122.297 9.18106C122.304 8.65427 122.206 8.13112 122.009 7.64017C121.815 7.15387 121.524 6.70944 121.153 6.33217C120.787 5.96019 120.348 5.66401 119.861 5.46151C119.379 5.26143 118.86 5.16035 118.335 5.16462ZM41.5822 18.6446L40.0292 23.5931H39.4902L38.1266 19.3797L36.7636 23.5931H36.2255L34.6743 18.6473H35.2133L36.5165 22.9522L37.8892 18.6473H38.3971L39.7698 22.9522L41.0729 18.6473L41.5817 18.6442L41.5822 18.6446ZM46.9517 21.1384V21.3753H42.5151C42.5545 21.8905 42.7934 22.3722 43.1836 22.7233C43.3726 22.8932 43.5944 23.025 43.8361 23.1112C44.0779 23.1974 44.3348 23.2363 44.592 23.2255C44.9308 23.2427 45.2678 23.1669 45.5644 23.0068C45.8653 22.8438 46.1149 22.6042 46.2864 22.3139L46.717 22.5722C46.4923 22.9284 46.1749 23.2209 45.7968 23.4202C45.4239 23.6159 45.0031 23.7093 44.5797 23.6904C44.2413 23.6919 43.9061 23.627 43.5942 23.4994C43.2824 23.3719 43.0003 23.1844 42.765 22.9482C42.2783 22.4597 42.005 21.8074 42.0022 21.1277C41.995 20.448 42.2584 19.7918 42.7375 19.2962C42.9691 19.0564 43.2482 18.8646 43.558 18.7323C43.8678 18.5999 44.2019 18.5297 44.5403 18.5259C46.0334 18.5317 46.9517 19.7837 46.9517 21.1384ZM42.5 20.8922H46.4397C46.3317 19.6771 45.4889 19.0122 44.5289 19.0122C44.2738 19.0073 44.0202 19.0516 43.7828 19.1425C43.5454 19.2333 43.3288 19.369 43.1457 19.5415C42.7672 19.8982 42.5419 20.381 42.5151 20.8926H42.5V20.8922ZM53.1215 21.1171C53.1259 21.4552 53.0635 21.7911 52.9375 22.1064C52.8129 22.4186 52.6263 22.704 52.3885 22.9464C52.1539 23.1854 51.872 23.3758 51.5598 23.5064C51.2507 23.6355 50.9175 23.7011 50.5811 23.6993C50.147 23.7078 49.7197 23.5945 49.3502 23.3731C48.975 23.1474 48.6718 22.8249 48.4745 22.4415V23.5899H47.984V16.6633H48.4745V19.7895C48.6718 19.4061 48.975 19.0835 49.3502 18.858C49.7197 18.6365 50.147 18.5232 50.5811 18.5317C50.9178 18.5298 51.2513 18.5955 51.5607 18.7246C51.871 18.8544 52.1528 19.0446 52.3894 19.2855C52.6273 19.5284 52.8139 19.8142 52.9385 20.1268C53.064 20.4425 53.1262 20.7787 53.1215 21.1171ZM52.631 21.1171C52.629 20.7049 52.5055 20.3018 52.275 19.9557C52.0489 19.6157 51.7236 19.3488 51.3406 19.1891C50.9626 19.0325 50.544 18.9926 50.1418 19.0748C49.7367 19.1587 49.3671 19.3597 49.0817 19.6513C48.7903 19.9484 48.594 20.3213 48.5166 20.7246C48.4373 21.1306 48.4789 21.5501 48.6364 21.934C48.7943 22.3162 49.0601 22.6433 49.4015 22.8731C49.7397 23.1019 50.1419 23.2249 50.5541 23.2255C50.829 23.2275 51.1013 23.1742 51.3539 23.0691C51.6093 22.9625 51.8398 22.8068 52.0316 22.6113C52.2247 22.4157 52.3775 22.1819 52.4804 21.9255C52.5834 21.6679 52.6345 21.3934 52.631 21.1171ZM59.9717 22.2957C59.9717 23.1068 59.267 23.6993 58.2169 23.6993C57.2355 23.6993 56.5885 23.2344 56.3537 22.5993L56.7751 22.3535C56.9527 22.8882 57.4825 23.2251 58.2169 23.2251C58.9028 23.2251 59.4807 22.9215 59.4807 22.2957C59.4807 20.9499 56.5102 21.7215 56.5102 19.9411C56.5102 19.1606 57.1755 18.5375 58.1776 18.5375C58.5217 18.5166 58.8639 18.5997 59.1609 18.7762C59.4578 18.9526 59.6962 19.2144 59.8449 19.5282L59.4327 19.7651C59.3267 19.5274 59.1485 19.3267 58.922 19.1899C58.6995 19.0557 58.4389 18.9933 58.1776 19.0117C57.5397 19.0117 57.0007 19.3486 57.0007 19.9411C57.0039 21.2655 59.9717 20.4851 59.9717 22.2957ZM61.8857 19.1397V22.3571C61.8857 23.2291 62.346 23.2473 63.3453 23.1588V23.6055C62.06 23.8033 61.386 23.4873 61.386 22.3602V19.1397H60.3085V18.6539H61.3979V17.4082L61.8976 17.2593V18.6446H63.3572V19.1397H61.8857ZM68.4138 18.6446V23.5899H67.9232V22.6513C67.7677 22.9778 67.517 23.2529 67.2021 23.4424C66.8901 23.6291 66.5304 23.718 66.1685 23.6993C65.0008 23.6993 64.2664 22.9188 64.2664 21.7215V18.6446H64.766V21.7224C64.766 22.6335 65.2868 23.2411 66.2074 23.2411C67.1285 23.2411 67.9232 22.6095 67.9232 21.2722V18.6597L68.4138 18.6446ZM74.6078 16.6668V23.5935H74.1173V22.4446C73.9196 22.8279 73.6163 23.1504 73.2411 23.3762C72.8716 23.5977 72.4443 23.711 72.0102 23.7024C71.6718 23.7013 71.3371 23.6337 71.0262 23.5037C70.7154 23.3737 70.4348 23.184 70.2015 22.9459C69.7184 22.4541 69.4499 21.7999 69.452 21.1202C69.452 20.4353 69.7215 19.7784 70.2015 19.2939C70.4349 19.056 70.7155 18.8663 71.0263 18.7364C71.3371 18.6065 71.6718 18.539 72.0102 18.5379C72.4442 18.5292 72.8716 18.6424 73.2411 18.8637C73.6163 19.0895 73.9196 19.4119 74.1173 19.7953V16.6668H74.6078ZM74.1173 21.1202C74.1152 20.7081 73.9917 20.3053 73.7613 19.9593C73.5352 19.6192 73.2099 19.3523 72.827 19.1926C72.4487 19.036 72.03 18.9962 71.6277 19.0784C71.2226 19.1625 70.8531 19.3634 70.5675 19.6548C70.2765 19.9521 70.0804 20.3249 70.0029 20.7282C69.9237 21.1342 69.9653 21.5537 70.1228 21.9375C70.2806 22.3197 70.5465 22.6468 70.8878 22.8766C71.226 23.1055 71.6282 23.2284 72.0404 23.2291C72.3156 23.231 72.5882 23.1776 72.8411 23.0722C73.0965 22.9655 73.327 22.8098 73.5188 22.6144C73.7123 22.4175 73.8647 22.1837 73.9677 21.9268C74.0703 21.6688 74.1211 21.3941 74.1173 21.1175V21.1206V21.1202ZM75.8446 17.0526C75.8446 16.9744 75.8675 16.8979 75.9105 16.8331C75.9529 16.7688 76.0141 16.7182 76.0862 16.6877C76.1574 16.6579 76.2363 16.6502 76.3122 16.6655C76.3887 16.6811 76.4586 16.7187 76.5126 16.7735C76.5674 16.83 76.6044 16.9005 76.6194 16.9767C76.6343 17.0529 76.6267 17.1316 76.5973 17.2037C76.5682 17.2753 76.5181 17.337 76.4532 17.3811C76.3785 17.4318 76.2876 17.4548 76.1969 17.4458C76.1063 17.4368 76.022 17.3965 75.9594 17.3322C75.8853 17.257 75.8441 17.1567 75.8446 17.0526ZM75.9919 18.6446H76.4829V23.5904H75.9919V18.6446ZM77.5303 21.1171C77.5264 20.6052 77.6742 20.103 77.9558 19.6704C78.2322 19.2453 78.6329 18.91 79.1066 18.7073C79.5742 18.5084 80.0936 18.4542 80.5941 18.5522C81.0979 18.6524 81.5586 18.8985 81.9156 19.2579C82.2795 19.6245 82.5261 20.0859 82.6253 20.5859C82.7265 21.0895 82.6774 21.6108 82.4839 22.0882C82.2939 22.5596 81.9652 22.9662 81.539 23.2575C81.1202 23.5431 80.6213 23.6973 80.1096 23.6993C79.7705 23.7045 79.434 23.6413 79.1212 23.5139C78.8054 23.3851 78.5198 23.1953 78.2816 22.9562C78.0398 22.7136 77.8496 22.4271 77.722 22.1131C77.5927 21.7963 77.5276 21.4583 77.5303 21.1175V21.1171ZM82.1773 21.1171C82.1746 20.7055 82.0506 20.3032 81.8199 19.9579C81.5936 19.6184 81.2681 19.3522 80.8851 19.1935C80.5071 19.0377 80.0889 18.9986 79.6872 19.0815C79.2828 19.1662 78.9142 19.3678 78.6298 19.6597C78.3394 19.9573 78.1443 20.3303 78.0679 20.7335C77.9898 21.1392 78.0324 21.558 78.1905 21.9411C78.3489 22.3224 78.6156 22.6477 78.9574 22.8766C79.2958 23.1044 79.6979 23.2261 80.1096 23.2255C80.3823 23.2255 80.6522 23.1708 80.9039 23.0646C81.1556 22.9579 81.3834 22.8024 81.5747 22.6059C81.7672 22.4082 81.9178 22.1756 82.0181 21.9215C82.1196 21.666 82.1695 21.3926 82.1649 21.1171H82.1773Z" fill="white"/>
</g>
<defs>
<clipPath id="clip0_21_19789">
<rect width="124" height="24" fill="white"/>
</clipPath>
</defs>
</svg>
